<?xml version="1.0" encoding="UTF-8" standalone="no"?>
<!-- Generator: Adobe Illustrator 16.0.0, SVG Export Plug-In . SVG Version: 6.00 Build 0)  -->

<svg
   xmlns:dc="http://purl.org/dc/elements/1.1/"
   xmlns:cc="http://creativecommons.org/ns#"
   xmlns:rdf="http://www.w3.org/1999/02/22-rdf-syntax-ns#"
   xmlns:svg="http://www.w3.org/2000/svg"
   xmlns="http://www.w3.org/2000/svg"
   xmlns:sodipodi="http://sodipodi.sourceforge.net/DTD/sodipodi-0.dtd"
   xmlns:inkscape="http://www.inkscape.org/namespaces/inkscape"
   version="1.0"
   x="0px"
   y="0px"
   width="841.891px"
   height="595.275px"
   viewBox="0 0 841.891 595.275"
   enable-background="new 0 0 841.891 595.275"
   xml:space="preserve"
   id="svg3286"
   inkscape:version="0.48.4 r9939"
   sodipodi:docname="ArduinoCommunityLogo_SVG.svg"
   inkscape:export-filename="G:\GE\CSF\git\ardublockly\apps\arduino_material\ArduinoCommunityLogo_SVG.png"
   inkscape:export-xdpi="90"
   inkscape:export-ydpi="90"><metadata
   id="metadata3585"><rdf:RDF><cc:Work
       rdf:about=""><dc:format>image/svg+xml</dc:format><dc:type
         rdf:resource="http://purl.org/dc/dcmitype/StillImage" /></cc:Work></rdf:RDF></metadata><defs
   id="defs3583" /><sodipodi:namedview
   pagecolor="#ffffff"
   bordercolor="#666666"
   borderopacity="1"
   objecttolerance="10"
   gridtolerance="10"
   guidetolerance="10"
   inkscape:pageopacity="0"
   inkscape:pageshadow="2"
   inkscape:window-width="1538"
   inkscape:window-height="877"
   id="namedview3581"
   showgrid="false"
   inkscape:zoom="1.1591281"
   inkscape:cx="420.9455"
   inkscape:cy="297.63751"
   inkscape:window-x="54"
   inkscape:window-y="1042"
   inkscape:window-maximized="1"
   inkscape:current-layer="svg3286" />
<g
   id="LOGO">
	<g
   id="g3289">
		<path
   d="M345.23,245.898l0.872-1.612c-8.086-4.307-16.404-7.133-24.769-8.328c-3.465-0.491-6.956-0.74-10.377-0.74    c-27.598,0-52.288,16.601-61.44,41.308l8.883,3.289c7.781-21.009,28.903-35.124,52.558-35.124c2.978,0,6.021,0.217,9.042,0.646    c16.037,2.291,31.447,11.039,45.803,26l5.229-5.019C363.967,258.769,355.346,251.37,345.23,245.898z"
   id="path3291"
   fill="#62AEB2" />
		<path
   d="M280.472,356.516c-23.789-11.059-39.16-34.446-39.16-59.582c0-12.716,3.727-25.022,10.776-35.588    c2.682-4.024,5.851-7.796,9.416-11.21l4.367,4.562c-3.233,3.094-6.103,6.509-8.53,10.15c-6.355,9.526-9.715,20.62-9.715,32.085    c0,23.038,13.605,43.675,35.508,53.855L280.472,356.516z"
   id="path3293"
   fill="#62AEB2" />
		<path
   d="M396.354,304.689l-2.738-6.389c-0.25-0.493-0.595-1.154-1.013-1.933    c-4.795,9.08-30.021,53.416-71.498,59.339c-3.387,0.484-6.88,1.592-10.183,1.592c-9.66-0.004-18.926-2.037-27.538-6.044    l-3.162,5.795c9.61,4.471,19.938,6.739,30.705,6.743c3.651,0,7.397-0.271,11.134-0.805c40.02-5.716,65.279-42.317,74.582-58.423    L396.354,304.689z"
   id="path3295"
   fill="#62AEB2" />
		<path
   d="M405.128,335.549c-8.114,11.026-17.068,20.572-26.674,28.371l2.318,2.854    c9.499-7.713,18.374-17.07,26.441-27.847c16.509,22.525,43.977,49.245,83.794,54.929l0.943-6.603    c-40.696-5.811-67.953-34.586-84.16-59.075C407.027,327.022,405.128,335.549,405.128,335.549z"
   id="path3297"
   fill="#E47128" />
		<path
   d="M511.482,362.999c-5.256,0.344-10.605,0.145-15.971-0.622c-12.228-1.748-24.078-6.63-35.223-14.511    l-3.465,4.898c11.929,8.436,24.659,13.668,37.838,15.552c3.966,0.567,7.967,0.854,11.891,0.854c1.651,0,3.293-0.063,4.93-0.163    V362.999z"
   id="path3299"
   fill="#E5AD24" />
		<path
   d="M399.523,303.331l-3.17,1.358l-2.738-6.389c-2.051-4.038-9.736-18.259-22.584-31.983l-5.229,5.019    c11.268,11.742,18.037,23.381,20.425,27.84l9.612,16.774l8.217-4.711L399.523,303.331z"
   id="path3301"
   fill="#E47128" />
		<path
   d="M506.553,357.661c-3.405,0-6.858-0.248-10.263-0.738c-42.807-6.113-67.851-49.576-72.437-58.228    l6.623-3.51c2.628,4.957,26.83,48.599,66.878,54.318c3.056,0.439,6.148,0.663,9.198,0.663V357.661z"
   id="path3303"
   fill="#62AEB2" />
		<path
   d="M566.199,280.234c-2.853-9.264-8.175-17.812-15.393-24.721c-9.459-9.048-21.471-14.832-34.738-16.726    l1.213-8.492c15.051,2.147,28.694,8.725,39.456,19.02c8.272,7.918,14.379,17.736,17.661,28.394L566.199,280.234z"
   id="path3305"
   fill="#00878F" />
		<path
   d="M451.607,252.945l-4.043-4.604c14.56-12.787,30.402-20.478,47.089-22.858    c3.94-0.563,7.934-0.849,11.867-0.849c20.32,0,39.357,7.507,53.604,21.139l-4.236,4.428    c-13.101-12.535-30.633-19.439-49.367-19.439c-3.645,0-7.346,0.266-11.001,0.788C480.031,233.759,465.257,240.958,451.607,252.945    z"
   id="path3307"
   fill="#00878F" />
		<path
   d="M420.48,312.622l-21.253-10.11l5.055-10.627c3.283-6.899,15.691-30.904,37.54-50.085l8.844-7.764    l15.527,17.688l-8.844,7.764c-18.944,16.63-29.825,38.328-31.813,42.509L420.48,312.622z"
   id="path3309"
   fill="#E5AD24" />
		<path
   d="M240.581,325.311c-3.925-8.957-5.915-18.505-5.915-28.377c0-19.555,7.901-37.88,22.248-51.602    c5.012-4.794,10.668-8.883,16.812-12.153l3.455,6.49c-5.55,2.955-10.659,6.647-15.186,10.978    c-12.882,12.32-19.977,28.759-19.977,46.287c0,8.851,1.782,17.404,5.296,25.426L240.581,325.311z"
   id="path3311"
   fill="#00878F" />
		<path
   d="M265.907,254.738l-4.439-4.643c13.137-12.562,30.713-19.48,49.489-19.48c3.66,0,7.372,0.265,11.032,0.787    c8.964,1.281,17.812,4.258,26.297,8.846l-3.055,5.65c-7.816-4.226-15.941-6.963-24.151-8.137    c-3.359-0.479-6.766-0.723-10.123-0.723C293.843,237.039,277.844,243.325,265.907,254.738z"
   id="path3313"
   fill="#E5AD24" />
		<path
   d="M221.919,296.934h-3.922c0-24.146,9.729-46.749,27.395-63.645l2.711,2.834    C231.218,252.272,221.919,273.868,221.919,296.934z"
   id="path3315"
   fill="#E5AD24" />
		<path
   d="M377.118,229.892c-15.847-12.668-33.217-20.424-51.628-23.053c-4.822-0.688-9.712-1.036-14.533-1.036    c-19.073,0-37.384,5.363-52.953,15.511l-2.855-4.381c16.42-10.703,35.719-16.36,55.809-16.36c5.067,0,10.206,0.366,15.272,1.089    c19.349,2.763,37.568,10.887,54.154,24.145L377.118,229.892z"
   id="path3317"
   fill="#00878F" />
		<path
   d="M413.901,263.84l-10.318-7.281c16.506-23.396,45.024-52.546,87.146-58.56l1.785,12.502    C454.851,215.879,428.976,242.475,413.901,263.84z"
   id="path3319"
   fill="#00878F" />
		<path
   d="M425.715,265.347l-7.301-5.52c14.446-19.11,39.062-42.947,74.293-47.974    c4.582-0.655,9.23-0.987,13.813-0.987c11.874,0,23.376,2.166,34.187,6.438l-3.363,8.512c-9.735-3.847-20.105-5.797-30.823-5.797    c-4.151,0-8.363,0.302-12.52,0.896C461.855,225.501,439.124,247.608,425.715,265.347z"
   id="path3321"
   fill="#62AEB2" />
		<path
   d="M410.996,280.249l-10.215-4.158l3.037-7.463l0.262-0.413c13.188-20.874,42.108-56.862,87.627-63.356    c4.915-0.702,9.899-1.058,14.813-1.058v11.029c-4.394,0-8.854,0.319-13.254,0.947c-38.844,5.542-64.693,34.458-79.603,57.918    L410.996,280.249z"
   id="path3323"
   fill="#62AEB2" />
		<path
   d="M410.822,268.945l-5.285-6.484c-8.783-12.447-18.619-23.062-29.235-31.549l4.898-6.128    c11.16,8.922,21.479,20.038,30.667,33.04l5.031,6.158L410.822,268.945z"
   id="path3325"
   fill="#62AEB2" />
		<path
   d="M573.146,232.169c-17.769-17.003-41.43-26.366-66.625-26.366c-4.817,0-9.706,0.349-14.53,1.036    l-0.738-5.178c5.067-0.723,10.205-1.089,15.269-1.089c26.549,0,51.494,9.879,70.24,27.817L573.146,232.169z"
   id="path3327"
   fill="#E47128" />
		<path
   d="M324.215,378.084l-1.906-13.346c53.362-7.618,79.951-69.773,80.213-70.4    c1.182-2.841,29.705-69.851,90.745-78.562l1.904,13.346c-53.525,7.638-79.944,69.772-80.205,70.399    C413.78,302.371,385.239,369.371,324.215,378.084z"
   id="path3329"
   fill="#00878F" />
		<path
   d="M268.146,364.592l5.853-10.072c14.362,8.344,31.006,11.457,48.135,9.006l1.65,11.526    c11.158-1.593,22.06-5.413,32.401-11.353l-9.766-17.004c-8.176,4.696-16.726,7.706-25.413,8.946    c-3.368,0.481-6.759,0.725-10.084,0.725c-16.981-0.001-32.855-6.243-44.698-17.576c-5.736-5.49-10.21-11.846-13.295-18.889    l-16.833,7.373c4.019,9.171,9.881,17.582,17.419,24.796l-0.848,0.886C257.382,357.468,262.58,361.354,268.146,364.592z"
   id="path3331"
   fill="#00878F" />
		<path
   d="M310.927,381.103c-23.386-0.001-45.333-8.682-61.805-24.441l3.701-3.868    c15.471,14.803,36.104,22.955,58.098,22.956c4.24,0,8.554-0.31,12.827-0.921c44.007-6.285,70.607-43.525,82.582-65.257    l3.037-7.188l4.932,2.084l-3.211,7.564c-12.424,22.588-40.193,61.472-86.582,68.096    C319.982,380.774,315.414,381.103,310.927,381.103z"
   id="path3333"
   fill="#00878F" />
		<path
   d="M310.927,395.585c-27.139-0.004-52.641-10.112-71.815-28.463l6.779-7.084    c17.341,16.597,40.436,25.738,65.031,25.742c4.719,0,9.51-0.344,14.243-1.022c18.344-2.621,35.622-10.432,51.357-23.216    l6.182,7.609c-17.134,13.92-36.025,22.437-56.15,25.312C321.363,395.207,316.105,395.585,310.927,395.585z"
   id="path3335"
   fill="#00878F" />
		<path
   d="M325.601,387.789l-1.213-8.492c39.533-5.645,65.689-35.059,80.683-58.772    c0.459-0.796,4.496-7.801,6.042-10.741l7.594,3.992c-1.712,3.255-6.065,10.794-6.25,11.113l-0.087,0.146    C396.417,350.288,368.415,381.676,325.601,387.789z"
   id="path3337"
   fill="#E5AD24" />
		<path
   d="M268.458,364.057c-24.613-14.292-39.307-39.385-39.307-67.123c0-4.036,0.317-8.083,0.944-12.027    l6.051,0.961c-0.575,3.628-0.868,7.351-0.868,11.066c0,25.529,13.554,48.642,36.256,61.824L268.458,364.057z"
   id="path3339"
   fill="#62AEB2" />
		<path
   d="M238.933,286.309l-11.623-1.844c3.364-21.195,15.08-39.924,32.991-52.735    c18.191-13.013,40.842-18.38,63.796-15.105c5.169,0.739,10.318,1.945,15.307,3.584l-3.674,11.18    c-4.335-1.424-8.809-2.472-13.297-3.114C281.706,222.478,245.02,247.957,238.933,286.309z"
   id="path3341"
   fill="#E47128" />
		<path
   d="M237.418,368.893c-10.731-10.267-18.858-22.326-24.156-35.843l13.691-5.367    c4.514,11.515,11.455,21.805,20.631,30.584L237.418,368.893z"
   id="path3343"
   fill="#E5AD24" />
		<path
   d="M310.927,388.842c-25.394-0.003-49.241-9.446-67.157-26.591c-16.307-15.605-26.196-36.384-27.847-58.507    l-0.009-0.159l-0.242-6.491l8.572-0.32l0.239,6.41c1.51,19.978,10.464,38.75,25.218,52.87    c16.312,15.609,38.054,24.207,61.221,24.21c4.453,0,8.982-0.325,13.465-0.967l1.215,8.492    C320.718,388.487,315.78,388.842,310.927,388.842z"
   id="path3345"
   fill="#62AEB2" />
		<path
   d="M350.312,358.852l-2.665-4.644l2.321-1.332c30.274-17.379,47.186-50.602,50.269-57.085l1.149-2.417    l4.834,2.299l-1.149,2.417c-3.202,6.735-20.781,41.258-52.437,59.429L350.312,358.852z"
   id="path3347"
   fill="#E5AD24" />
		<path
   d="M417.194,293.418c-0.268-0.643-2.177-5.146-5.808-11.729l1.363-0.751    c-12.627-22.914-40.847-62.358-87.973-69.085c-4.584-0.655-9.234-0.987-13.82-0.987v9.152c4.154,0,8.368,0.302,12.526,0.896    c5.095,0.728,9.944,1.895,14.571,3.399l-3.348,10.179c43.5,14.308,65.375,65.454,65.586,65.956    c1.206,2.899,30.249,71.119,92.633,80.023l2.586-18.121C443.533,354.931,417.448,294.022,417.194,293.418z"
   id="path3349"
   fill="#00878F" />
		<path
   d="M588.917,296.934h-7.354c0-20.25-8.935-39.615-24.514-53.13c-16.736-14.519-39.445-20.973-62.312-17.715    l-1.037-7.279c24.973-3.564,49.821,3.523,68.168,19.439C579.058,253.161,588.917,274.551,588.917,296.934z"
   id="path3351"
   fill="#E5AD24" />
		<rect
   x="301.648"
   y="266.091"
   width="19.887"
   height="61.699"
   id="rect3353"
   fill="#E5AD24" />
		<rect
   x="280.743"
   y="286.998"
   width="61.695"
   height="19.89"
   id="rect3355"
   fill="#00878F" />
		<path
   d="M607.156,305.922l-7.859-0.729c0.251-2.714,0.379-5.492,0.379-8.26c0-24.208-9.749-46.866-27.451-63.803    l5.457-5.703c19.272,18.439,29.887,43.124,29.887,69.506C607.568,299.942,607.43,302.967,607.156,305.922z"
   id="path3357"
   fill="#62AEB2" />
		<path
   d="M580.115,310.515l-5.131-1.02c0.824-4.148,1.242-8.411,1.242-12.669c0-17.818-7.21-34.53-20.301-47.057    l3.615-3.779c14.133,13.523,21.916,31.577,21.916,50.836C581.457,301.426,581.005,306.031,580.115,310.515z"
   id="path3359"
   fill="#00878F" />
		<path
   d="M571.13,311.774l-11.875-3.027c0.978-3.834,1.473-7.809,1.474-11.814    c0-28.039-24.317-50.851-54.208-50.851c-2.91,0-5.886,0.213-8.845,0.632c-0.783,0.112-1.564,0.241-2.342,0.384l-2.211-12.055    c0.938-0.172,1.877-0.326,2.827-0.462c3.532-0.501,7.087-0.755,10.57-0.755c36.648,0,66.464,28.311,66.464,63.107    C572.983,301.96,572.359,306.952,571.13,311.774z"
   id="path3361"
   fill="#E47128" />
		<path
   d="M472.94,248.847l-1.413-2.549c-28.136,15.598-44.606,46.13-47.623,52.093l-2.979,6.064l-3.151-1.549    l-1.299,2.885l11.18,5.02l5.012-11.162c2.948-5.463,25.839-45.765,62.673-52.552l-1.108-6.016    C487,242.417,479.851,245.019,472.94,248.847z"
   id="path3363"
   fill="#00878F" />
		<path
   d="M506.553,383.94c-4.619,0-9.324-0.338-13.984-1.004c-20.805-2.971-40.108-12.638-57.375-28.731l7.52-8.068    c15.586,14.527,32.885,23.235,51.415,25.882c4.951,0.706,9.925,0.976,14.812,0.861l0.258,11.027    C508.316,383.928,507.436,383.94,506.553,383.94z"
   id="path3365"
   fill="#62AEB2" />
	</g>
</g>
<g
   id="OPENSOURCECOMMUNITY">
	<g
   id="g3368">
		
		
		
		
		
		
		
		
		
		
		
		
		
		
		
		
		
		
		
		
		
		
		
		
		
		
		
	</g>
</g>

</svg>